<?xml version="1.0" encoding="UTF-8" standalone="no"?>
<svg
   xmlns:dc="http://purl.org/dc/elements/1.1/"
   xmlns:cc="http://creativecommons.org/ns#"
   xmlns:rdf="http://www.w3.org/1999/02/22-rdf-syntax-ns#"
   xmlns:svg="http://www.w3.org/2000/svg"
   xmlns="http://www.w3.org/2000/svg"
   xmlns:sodipodi="http://sodipodi.sourceforge.net/DTD/sodipodi-0.dtd"
   xmlns:inkscape="http://www.inkscape.org/namespaces/inkscape"
   inkscape:version="1.0 (4035a4fb49, 2020-05-01)"
   sodipodi:docname="Boy_M_shape.svg"
   id="svg867"
   version="1.1"
   viewBox="0 0 1500 1000"
   height="1000"
   width="1500">
  <metadata
     id="metadata871">
    <rdf:RDF>
      <cc:Work
         rdf:about="">
        <dc:format>image/svg+xml</dc:format>
        <dc:type
           rdf:resource="http://purl.org/dc/dcmitype/StillImage" />
        <dc:title></dc:title>
      </cc:Work>
    </rdf:RDF>
  </metadata>
  <sodipodi:namedview
     units="mm"
     showguides="false"
     inkscape:pagecheckerboard="true"
     inkscape:snap-center="true"
     inkscape:snap-object-midpoints="true"
     inkscape:snap-bbox-midpoints="true"
     inkscape:snap-bbox-edge-midpoints="true"
     inkscape:bbox-nodes="true"
     inkscape:snap-bbox="true"
     inkscape:current-layer="svg867"
     inkscape:window-maximized="1"
     inkscape:window-y="-8"
     inkscape:window-x="-8"
     inkscape:cy="563.94214"
     inkscape:cx="845.2342"
     inkscape:zoom="0.69375029"
     inkscape:snap-smooth-nodes="true"
     inkscape:snap-midpoints="true"
     inkscape:snap-intersection-paths="true"
     inkscape:object-paths="true"
     showgrid="false"
     id="namedview869"
     inkscape:window-height="1017"
     inkscape:window-width="1920"
     inkscape:pageshadow="2"
     inkscape:pageopacity="0.4627451"
     guidetolerance="10"
     gridtolerance="10"
     objecttolerance="10"
     borderopacity="1"
     bordercolor="#666666"
     pagecolor="#dcdcdc" />
  <defs
     id="defs855">
    <style
       id="style853">
      .cls-1, .cls-2, .cls-3 {
        fill: none;
        stroke: #00c6ff;
        stroke-linecap: round;
        fill-rule: evenodd;
      }

      .cls-1 {
        stroke-width: 55px;
      }

      .cls-2, .cls-3 {
        stroke-width: 49px;
      }

      .cls-3 {
        stroke-linejoin: round;
      }
    </style>
  </defs>
  <g
     transform="matrix(0.73758211,0,0,0.73758211,192.85475,222.00142)"
     inkscape:label="BoyM_shaped"
     id="g993">
    <path
       style="color:#000000;font-style:normal;font-variant:normal;font-weight:normal;font-stretch:normal;font-size:medium;line-height:normal;font-family:sans-serif;font-variant-ligatures:normal;font-variant-position:normal;font-variant-caps:normal;font-variant-numeric:normal;font-variant-alternates:normal;font-variant-east-asian:normal;font-feature-settings:normal;font-variation-settings:normal;text-indent:0;text-align:start;text-decoration:none;text-decoration-line:none;text-decoration-style:solid;text-decoration-color:#000000;letter-spacing:normal;word-spacing:normal;text-transform:none;writing-mode:lr-tb;direction:ltr;text-orientation:mixed;dominant-baseline:auto;baseline-shift:baseline;text-anchor:start;white-space:normal;shape-padding:0;shape-margin:0;inline-size:0;clip-rule:nonzero;display:inline;overflow:visible;visibility:visible;isolation:auto;mix-blend-mode:normal;color-interpolation:sRGB;color-interpolation-filters:linearRGB;solid-color:#000000;solid-opacity:1;vector-effect:none;fill:#ffffff;fill-opacity:1;fill-rule:evenodd;stroke:none;stroke-width:70;stroke-linecap:round;stroke-linejoin:miter;stroke-miterlimit:4;stroke-dasharray:none;stroke-dashoffset:0;stroke-opacity:1;color-rendering:auto;image-rendering:auto;shape-rendering:auto;text-rendering:auto;enable-background:accumulate;stop-color:#000000;stop-opacity:1"
       d="m 1362.0691,137.27992 0.5742,0.004 -0.2812,-0.004 z m 0.5742,0.004 c -1.5618,-0.0257 -3.1114,0.002 -4.6504,0.0781 -12.273,0.60866 -23.4156,3.67803 -34.3281,11.05273 -11.7206,7.91366 -59.2198,37.54282 -87.7305,55.25977 l -68.6015,-42.5332 v 0 c -35.1427,-21.78256 -83.7763,0.56278 -90.1406,41.41601 v 0.002 l -26.705,171.5664 c -9.3976,-6.23504 -20.5793,-9.91417 -32.506,-9.91417 h -68.52176 l 33.45117,-42.92383 0.002,-0.002 c 19.94319,-25.59183 15.23553,-63.55904 -10.35552,-83.50386 -10.45592,-8.14904 -23.35111,-12.57718 -36.60742,-12.57031 h -0.002 c -18.3019,0.0103 -35.64717,8.48972 -46.89649,22.92383 h -0.002 l -25.64648,32.91015 -18.40821,-28.56445 c -10.9751,-17.03104 -29.98913,-27.34988 -50.25,-27.26953 h -0.002 c -11.34843,0.0456 -22.45512,3.33851 -31.99414,9.48633 -8.79127,5.66596 -15.55576,13.40775 -20.14258,22.18945 -22.71738,-18.94238 -51.90227,-30.42187 -83.53125,-30.42187 -20.63053,0 -40.25614,4.83049 -57.92187,13.23437 1.10788,-1.91805 2.19249,-3.9581 3.17968,-6.11523 5.10785,-11.16124 11.89774,-37.06209 0.76403,-60.45709 -11.02917,-23.17582 -31.75836,-32.22296 -42.99592,-35.36914 -9.269,-2.59503 -18.21977,-2.73438 -22.30859,-2.73438 h -318 c -32.59923,0 -67.71635,23.3892 -75.28711,61.24414 l -0.0312,0.1582 -0.0352,0.1875 -61.816764,319.21491 c -6.483553,33.48069 15.996004,66.75784 49.476544,73.24219 33.4807,6.48355 66.75784,-15.99601 73.24219,-49.47657 l 13.87304,-71.64258 c 11.41997,11.8111 22.41279,15.28706 39.84695,15.28706 134.20023,0 491.95916,-0.0273 756.9209,-0.0273 65.7945,0 139.8551,-0.62505 307.4026,-0.62505 35.9478,0 62.7835,-18.16972 67.4746,-50.27344 v -0.002 c 3e-4,-0.002 7.6712,-52.51292 15.5098,-106.41211 7.8328,-53.86035 15.1552,-103.29649 16.6914,-116.09766 v -0.0371 c 2.5279,-21.18048 -5.8729,-46.79123 -27.6367,-61.74023 -11.4618,-7.87255 -23.7897,-10.5581 -34.7735,-10.74023 z m 62.418,72.48046 0.2461,-2.04101 v -2.10751 z"
       id="path984"
       sodipodi:nodetypes="cccccccccscccscccsssccccssscscscssscccccccccccsssccsccccc"
       inkscape:label="back" />
    <path
       d="m 1362.071,172.27992 c -0.783,-0.0129 -1.5651,4.7e-4 -2.3437,0.0391 -6.2286,0.30876 -12.2207,2.22544 -16.4649,5.09375 -16.1818,10.92684 -78.6451,49.70791 -102.6342,64.57526 -2.8764,1.66069 -5.4507,2.39785 -8.6176,0.4344 l -83.1192,-51.5331 c -14.9107,-9.24211 -34.4189,-0.27892 -37.1192,17.05469 l -33,212 c -2.081,13.37031 7.071,25.89598 20.4414,27.97656 13.3703,2.08103 25.896,-7.07101 27.9766,-20.4414 l 26.2449,-168.60054 c 0.5888,-2.97045 2.8942,-5.42304 6.2933,-3.6184 l 63.3426,39.27363 c 7.8951,4.89456 17.8792,4.90362 25.7832,0.0234 0,0 44.0566,-27.1729 80.3916,-50.01535 2.9531,-1.79253 5.7721,0.65159 5.5037,3.25937 -2.683,18.75289 -5.041,35.29051 -9.5085,66.00989 -7.8334,53.86474 -15.502,106.35937 -15.502,106.35937 -1.9553,13.38852 7.3128,25.82729 20.7012,27.78321 13.3885,1.95532 25.8273,-7.31275 27.7832,-20.70117 0,0 7.6713,-52.50536 15.5078,-106.39063 7.8365,-53.88527 15.4383,-105.74831 16.5762,-115.23047 v -0.0156 c 1.2109,-10.14555 -2.3213,-21.61389 -12.6992,-28.74219 -4.5404,-3.11863 -10.058,-4.50317 -15.5391,-4.59375 z m -567.18774,87.93164 c -4.67398,0.0188 -9.24506,1.3742 -13.17382,3.90625 -11.37346,7.32974 -14.65172,22.49158 -7.32227,33.86523 l 53.27672,82.67131 c 0.81075,1.06192 0.71985,2.26733 0.0638,3.10923 l -24.07094,30.88743 c -8.31766,10.67249 -6.40876,26.06703 4.26367,34.38477 10.67249,8.31766 26.06703,6.40876 34.38477,-4.26367 l 113,-145 c 8.31766,-10.67249 6.40876,-26.06703 -4.26367,-34.38477 -4.30745,-3.3571 -9.61306,-5.17879 -15.07422,-5.17578 -7.54717,0.004 -14.67118,3.48663 -19.31055,9.43945 l -53.77686,69.00654 c -1.56966,1.69768 -2.33513,2.34954 -3.88496,0.15779 l -43.42026,-67.37526 c -4.52923,-7.02841 -12.33011,-11.26168 -20.69141,-11.22852 z m -135.80859,1.25391 c -53.54055,0 -98.46369,42.59033 -100.28906,95.9082 -1.82527,53.3149 41.79771,97.58203 95.34179,97.58203 53.54449,0 98.45861,-42.5928 100.28516,-95.90625 1.8266,-53.31482 -41.793,-97.58398 -95.33789,-97.58398 z m 0,49 c 27.45511,0 47.27459,20.42106 46.36719,46.90625 -0.90745,26.48655 -23.85894,48.58398 -51.31446,48.58398 -27.45591,0 -47.27587,-20.42115 -46.36914,-46.90625 0.90664,-26.48213 23.87096,-48.58398 51.31641,-48.58398 z m 279.90625,88.74609 c -13.53098,0 -24.5,10.96902 -24.5,24.5 0,13.53098 10.96902,24.5 24.5,24.5 h 79.00028 c 13.531,0 24.5,-10.96902 24.5,-24.5 0,-13.53098 -10.969,-24.5 -24.5,-24.5 z"
       style="color:#000000;font-style:normal;font-variant:normal;font-weight:normal;font-stretch:normal;font-size:medium;line-height:normal;font-family:sans-serif;font-variant-ligatures:normal;font-variant-position:normal;font-variant-caps:normal;font-variant-numeric:normal;font-variant-alternates:normal;font-variant-east-asian:normal;font-feature-settings:normal;font-variation-settings:normal;text-indent:0;text-align:start;text-decoration:none;text-decoration-line:none;text-decoration-style:solid;text-decoration-color:#000000;letter-spacing:normal;word-spacing:normal;text-transform:none;writing-mode:lr-tb;direction:ltr;text-orientation:mixed;dominant-baseline:auto;baseline-shift:baseline;text-anchor:start;white-space:normal;shape-padding:0;shape-margin:0;inline-size:0;clip-rule:nonzero;display:inline;overflow:visible;visibility:visible;opacity:1;isolation:auto;mix-blend-mode:normal;color-interpolation:sRGB;color-interpolation-filters:linearRGB;solid-color:#000000;solid-opacity:1;vector-effect:none;fill:#1e242b;fill-opacity:1;fill-rule:evenodd;stroke:none;stroke-width:49px;stroke-linecap:round;stroke-linejoin:miter;stroke-miterlimit:4;stroke-dasharray:none;stroke-dashoffset:0;stroke-opacity:1;color-rendering:auto;image-rendering:auto;shape-rendering:auto;text-rendering:auto;enable-background:accumulate;stop-color:#000000;stop-opacity:1"
       id="path915"
       inkscape:label="oy_M"
       sodipodi:nodetypes="csccccccccccccccscccsccsccccccccsccsscccccsssssssssssssssss" />
    <path
       style="color:#000000;font-style:normal;font-variant:normal;font-weight:normal;font-stretch:normal;font-size:medium;line-height:normal;font-family:sans-serif;font-variant-ligatures:normal;font-variant-position:normal;font-variant-caps:normal;font-variant-numeric:normal;font-variant-alternates:normal;font-variant-east-asian:normal;font-feature-settings:normal;font-variation-settings:normal;text-indent:0;text-align:start;text-decoration:none;text-decoration-line:none;text-decoration-style:solid;text-decoration-color:#000000;letter-spacing:normal;word-spacing:normal;text-transform:none;writing-mode:lr-tb;direction:ltr;text-orientation:mixed;dominant-baseline:auto;baseline-shift:baseline;text-anchor:start;white-space:normal;shape-padding:0;shape-margin:0;inline-size:0;clip-rule:nonzero;display:inline;overflow:visible;visibility:visible;opacity:1;isolation:auto;mix-blend-mode:normal;color-interpolation:sRGB;color-interpolation-filters:linearRGB;solid-color:#000000;solid-opacity:1;vector-effect:none;fill:#ff2d2d;fill-opacity:1;fill-rule:evenodd;stroke:none;stroke-width:55px;stroke-linecap:round;stroke-linejoin:miter;stroke-miterlimit:4;stroke-dasharray:none;stroke-dashoffset:0;stroke-opacity:1;color-rendering:auto;image-rendering:auto;shape-rendering:auto;text-rendering:auto;enable-background:accumulate;stop-color:#000000;stop-opacity:1"
       d="m 220.51778,170.21156 c -18.42957,0 -36.60943,11.32059 -40.9668,33.10742 l -0.0156,0.082 -61.01563,315.08203 c -2.88744,14.91057 6.85903,29.33878 21.76953,32.22657 14.91057,2.88744 29.33878,-6.85903 32.22657,-21.76953 l 57.96598,-299.33699 c 0.5131,-2.56975 2.9033,-4.3915 5.03711,-4.3915 h 252.66518 c 2.55228,0 3.48229,2.35102 1.9916,4.12024 -3.39607,4.02985 -6.1311,7.28155 -10.18919,12.08874 -16.60511,19.67034 -30.303,35.92194 -33.13672,39.1504 -2.83348,3.22814 -6.48244,7.59849 -9.12891,14.76757 -2.64646,7.16908 -3.05447,17.56775 -0.0215,25.83985 3.77506,10.2952 11.83412,27.70286 20.33398,46.35351 4.09773,8.99135 6.63528,14.57022 9.12579,20.04501 1.89242,3.92225 -0.78041,5.63468 -3.60104,5.63468 H 265.51778 c -15.18783,0 -27.5,12.31217 -27.5,27.5 0,15.18783 12.31217,27.5 27.5,27.5 h 224 c 13.73198,0 31.73605,-8.122 38.49219,-22.95312 6.75613,-14.83113 3.4879,-28.1803 -1.13672,-39.19336 -2.82864,-6.73615 -10.36858,-22.85672 -18.79297,-41.3418 -5.77432,-12.6702 -10.27262,-22.9737 -13.46819,-30.42019 -1.12586,-2.79495 -0.45938,-4.48472 0.9202,-6.10337 5.63421,-6.61108 14.16701,-16.71287 26.48158,-31.30066 16.62439,-19.69317 34.72922,-41.17345 42.56446,-50.50586 h 0.002 c 2.56423,-3.05445 5.04643,-6.09279 7.46289,-11.37305 2.41646,-5.28025 5.40442,-15.67721 0.17578,-26.66406 -5.22863,-10.98685 -14.99672,-15.13146 -20.50586,-16.61719 -5.50918,-1.48572 -9.34409,-1.52734 -13.19536,-1.52734 z"
       id="path887"
       sodipodi:nodetypes="scccccccccscscsccsssssssccsccsssss"
       inkscape:label="B" />
  </g>
</svg>
